<?xml version="1.0" standalone="no"?>
<!DOCTYPE svg PUBLIC "-//W3C//DTD SVG 20010904//EN"
 "http://www.w3.org/TR/2001/REC-SVG-20010904/DTD/svg10.dtd">
<svg version="1.0" xmlns="http://www.w3.org/2000/svg"
 width="1125.000000pt" height="1125.000000pt" viewBox="0 0 1125.000000 1125.000000"
 preserveAspectRatio="xMidYMid meet">
<metadata>
Created by potrace 1.11, written by Peter Selinger 2001-2013
</metadata>
<g transform="translate(0.000000,1125.000000) scale(0.100000,-0.100000)"
fill="#000000" stroke="none">
<path d="M3978 11232 c-1 -4 -70 -54 -153 -111 -176 -122 -266 -194 -390 -311
-80 -76 -252 -228 -325 -287 -48 -40 -169 -56 -369 -50 -151 4 -200 10 -346
40 -93 20 -235 50 -314 66 -135 29 -147 33 -185 68 -33 31 -35 32 -12 6 16
-18 27 -35 24 -38 -2 -3 -54 0 -114 6 -338 35 -712 -52 -806 -186 -53 -75 -58
-210 -10 -257 19 -20 19 -20 10 30 -16 79 -4 117 52 172 27 26 64 53 81 59 31
11 29 8 -23 -41 -46 -43 -108 -137 -108 -163 0 -4 19 7 43 24 94 68 260 96
457 79 134 -12 404 -94 484 -147 l29 -19 -29 -15 c-39 -19 -217 -61 -395 -92
-112 -20 -203 -28 -414 -35 -565 -21 -712 -35 -940 -95 -157 -41 -225 -68
-225 -91 0 -11 5 -14 18 -9 57 23 170 59 252 80 185 46 232 49 635 46 295 -2
419 1 555 14 96 9 179 19 184 22 5 4 7 -1 3 -11 -4 -10 -7 -21 -7 -24 0 -4 -4
-1 -9 7 -6 9 -18 11 -35 7 -15 -4 -24 -11 -21 -16 3 -6 1 -10 -4 -10 -6 0 -11
-7 -11 -16 0 -8 -5 -12 -10 -9 -6 3 -14 -5 -20 -19 -5 -14 -14 -26 -20 -26 -5
0 -10 -10 -10 -22 0 -13 -7 -31 -14 -41 -14 -18 -14 -18 -19 0 -3 12 -5 9 -6
-9 -1 -18 -7 -28 -16 -28 -9 0 -18 -12 -21 -30 -4 -16 -10 -30 -15 -30 -5 0
-9 -8 -10 -17 -1 -12 -3 -10 -8 6 l-6 23 -14 -26 c-8 -14 -20 -26 -28 -26 -16
0 -17 -17 -1 -22 8 -3 3 -14 -15 -30 -15 -14 -27 -29 -27 -34 0 -5 -9 -15 -20
-22 -11 -7 -20 -21 -20 -33 0 -11 -4 -17 -10 -14 -6 3 -10 -5 -10 -19 0 -17
-14 -38 -40 -62 -36 -34 -55 -65 -30 -49 19 12 10 -8 -20 -42 -17 -18 -30 -38
-30 -42 0 -5 -9 -11 -20 -14 -11 -3 -20 -13 -20 -24 0 -15 2 -16 10 -3 7 11
10 12 10 2 0 -8 -9 -16 -20 -19 -11 -3 -20 -10 -20 -17 0 -7 -4 -6 -9 2 -6 10
-10 7 -15 -13 -5 -18 -12 -25 -21 -21 -8 3 -14 2 -14 -2 3 -19 -2 -25 -11 -12
-7 11 -10 7 -10 -17 0 -18 -4 -33 -10 -33 -5 0 -10 -7 -10 -16 0 -8 -4 -13 -9
-10 -5 3 -15 -14 -22 -39 -8 -28 -19 -45 -29 -45 -20 0 -50 -35 -50 -59 0 -22
-33 -54 -45 -44 -4 5 -5 -4 -1 -19 5 -21 3 -28 -9 -28 -9 0 -20 -12 -25 -26
-13 -32 -35 -55 -45 -46 -5 4 -5 -1 -2 -11 4 -11 1 -20 -7 -23 -8 -3 -20 -19
-26 -35 -7 -16 -16 -26 -21 -23 -5 3 -9 1 -9 -5 0 -6 -55 -67 -122 -136 -66
-69 -128 -135 -136 -148 -8 -12 -25 -33 -37 -47 -12 -14 -31 -38 -41 -55 -15
-24 -6 -19 46 26 105 89 130 100 130 58 0 -23 -27 -32 -34 -11 -2 9 -4 6 -3
-8 1 -14 7 -28 12 -32 7 -5 7 -11 0 -15 -6 -5 -22 -32 -35 -60 -27 -57 -34
-62 -49 -35 -9 15 -10 15 -11 -5 0 -14 6 -23 15 -23 8 0 15 -5 15 -10 0 -6 -8
-10 -17 -8 -11 2 -18 -3 -18 -12 0 -8 -4 -21 -9 -28 -7 -11 -4 -12 13 -3 17
10 21 9 21 -4 0 -9 -4 -14 -9 -11 -13 8 -34 -21 -28 -39 4 -8 2 -17 -4 -21 -5
-3 -7 -14 -4 -25 5 -13 2 -19 -10 -19 -11 0 -14 -6 -10 -23 4 -13 -1 -43 -10
-68 -9 -24 -18 -61 -19 -81 -1 -21 -7 -43 -12 -48 -7 -7 -8 -27 -3 -53 4 -23
4 -46 -1 -52 -15 -19 -30 -88 -20 -100 18 -21 3 -45 -101 -157 -171 -183 -169
-180 -169 -228 l0 -42 132 126 c73 69 137 126 143 126 5 0 2 -7 -8 -14 -22
-17 -28 -46 -14 -63 6 -9 6 -17 0 -25 -6 -7 -9 -32 -8 -55 2 -28 -1 -43 -9
-43 -12 0 -14 -100 -2 -137 4 -13 -18 -50 -77 -128 -45 -61 -99 -134 -120
-163 l-37 -52 0 -173 0 -172 42 50 c83 98 185 198 185 180 0 -9 -10 -24 -22
-33 -21 -16 -21 -18 -7 -40 13 -20 13 -25 1 -33 -12 -8 -12 -10 1 -19 13 -8
12 -11 -4 -23 -13 -10 -15 -16 -8 -21 7 -4 12 -12 12 -17 0 -6 -5 -7 -12 -3
-7 4 -8 3 -4 -4 4 -7 -32 -57 -88 -122 l-96 -110 0 -1152 c0 -1301 -9 -1182
80 -1021 l46 82 47 -40 c43 -37 46 -42 35 -62 -7 -12 -47 -125 -88 -252 -66
-200 -79 -230 -97 -233 -22 -3 -22 -4 -23 -274 0 -150 2 -269 5 -266 32 32
304 933 381 1261 10 42 21 77 25 77 4 0 3 -15 -2 -32 -15 -55 -12 -75 14 -74
12 1 25 6 29 11 5 6 8 5 8 -3 0 -7 -7 -20 -15 -28 -13 -14 -15 -14 -15 0 0 9
-8 14 -20 13 -12 -1 -20 -8 -20 -19 0 -10 5 -15 13 -12 8 3 19 -2 26 -9 13
-16 2 -74 -27 -152 -8 -22 -18 -56 -22 -75 -5 -19 -18 -71 -30 -115 -30 -106
-41 -154 -45 -190 -7 -74 -130 -357 -248 -574 -31 -57 -57 -116 -57 -130 0
-23 4 -21 30 22 47 74 174 315 201 381 14 35 32 62 44 66 11 4 46 16 79 26 79
24 166 77 237 144 32 31 59 55 60 55 1 0 50 -235 102 -490 25 -121 64 -296 87
-390 22 -93 54 -228 71 -300 40 -169 101 -355 149 -458 44 -94 93 -150 200
-229 134 -98 173 -124 285 -185 61 -33 178 -98 260 -144 83 -45 242 -130 355
-188 295 -152 470 -245 470 -251 0 -3 -51 -21 -112 -40 -323 -99 -584 -236
-906 -478 -187 -140 -510 -468 -472 -480 6 -2 26 13 43 34 17 22 56 65 87 96
31 32 55 60 53 62 -2 2 4 9 14 17 15 12 16 12 8 -1 -5 -8 -10 -21 -11 -30 0
-8 -6 -42 -13 -74 -6 -33 -11 -70 -11 -83 l0 -23 170 0 169 0 26 43 c32 56 32
81 0 42 -17 -20 -9 1 24 65 27 52 54 113 61 135 7 22 21 52 32 67 11 16 16 32
13 38 -3 5 -3 10 2 10 4 0 7 18 7 40 -2 29 -9 47 -25 60 -18 16 -19 20 -6 20
20 0 18 23 -2 31 -9 3 13 23 60 55 122 83 229 145 239 139 6 -4 10 -16 10 -29
0 -12 13 -69 29 -127 41 -147 121 -531 121 -580 0 -5 1323 -9 3456 -9 3071 0
3455 2 3444 15 -9 10 -9 15 -1 15 6 0 11 12 11 27 0 21 3 24 12 15 16 -16 28
-15 28 2 0 8 11 28 25 44 29 34 33 52 8 30 -22 -18 -53 -36 -38 -21 54 55 298
213 441 287 49 26 140 78 202 116 61 38 112 65 112 60 0 -6 11 -5 25 2 14 6
25 15 25 20 0 5 -5 6 -10 3 -5 -3 -10 -4 -10 -1 0 3 10 10 21 17 12 6 19 7 15
1 -3 -5 6 -9 19 -9 14 0 25 3 25 8 0 5 9 9 19 9 11 0 21 6 24 13 3 9 7 9 20
-2 14 -11 17 -11 17 0 0 11 2 11 10 -1 9 -13 12 -13 24 3 8 10 20 17 28 16 31
-4 58 2 73 17 8 9 22 13 30 10 8 -3 15 0 15 6 0 6 3 8 6 5 4 -3 15 -2 25 4 13
6 19 6 19 -1 0 -5 12 -10 26 -10 14 0 23 4 19 10 -3 6 -2 10 3 10 4 0 19 10
32 22 16 15 25 18 28 10 6 -19 60 -15 71 6 5 9 12 16 15 15 11 -4 41 11 53 26
9 13 14 13 24 4 9 -9 6 -20 -17 -50 -42 -56 -227 -235 -319 -309 -153 -124
-392 -275 -553 -351 -41 -19 -72 -37 -69 -40 3 -3 12 -1 19 3 7 5 42 9 78 10
36 1 79 4 96 7 109 19 349 125 540 239 218 129 490 359 665 562 63 73 74 82
85 68 11 -14 14 -14 45 0 18 9 37 14 41 12 4 -3 8 811 8 1808 l0 1814 -25 2
c-14 1 -24 -2 -22 -6 1 -4 -1 -7 -4 -7 -4 0 -15 -7 -25 -16 -11 -9 -27 -19
-36 -22 -10 -4 -18 -14 -18 -22 0 -9 -4 -14 -9 -11 -5 3 -14 0 -20 -8 -7 -9
-25 -12 -50 -9 -24 3 -43 -1 -52 -9 -8 -8 -32 -12 -58 -11 -24 2 -50 -2 -57
-8 -7 -6 -18 -8 -24 -4 -5 3 -15 3 -22 -1 -7 -4 -24 -8 -38 -8 -14 -1 -31 -5
-39 -10 -8 -5 -16 -4 -22 5 -8 12 -11 12 -20 -1 -8 -11 -12 -12 -16 -2 -6 16
-33 15 -33 -2 0 -16 -45 -15 -76 1 -10 6 -45 10 -76 9 -50 -1 -56 0 -44 14 50
57 216 324 296 475 29 55 56 105 60 110 4 6 55 105 113 220 117 235 184 384
263 590 l54 139 0 2623 0 2623 -1270 0 c-698 0 -1270 -4 -1270 -8 0 -4 5 -13
12 -20 9 -9 8 -12 -8 -12 -11 0 -24 -4 -30 -10 -5 -5 -46 -12 -91 -15 -50 -3
-100 -13 -130 -26 -26 -12 -60 -21 -75 -21 -16 0 -28 -5 -28 -12 0 -7 -12 -11
-30 -10 -17 1 -28 -3 -27 -10 1 -6 -5 -10 -14 -8 -30 5 -69 -16 -69 -37 0 -11
-9 -36 -20 -56 -11 -20 -20 -47 -20 -60 0 -14 -4 -25 -10 -25 -5 0 -10 -18
-10 -40 0 -22 -4 -40 -10 -40 -17 0 -11 -18 8 -22 9 -2 -84 -7 -208 -11 -265
-9 -429 -25 -680 -68 -219 -38 -357 -73 -650 -165 -151 -47 -230 -77 -460
-172 -113 -46 -225 -91 -250 -99 -184 -60 -543 -222 -900 -405 -129 -66 -239
-124 -245 -128 -28 -19 -228 -121 -218 -110 9 10 7 17 -8 33 -10 11 -19 31
-19 44 0 13 -7 26 -16 30 -10 3 -14 13 -10 25 3 12 -7 36 -25 61 -16 22 -29
51 -29 64 0 12 -4 23 -10 23 -5 0 -7 7 -4 15 4 8 -1 17 -10 21 -9 3 -14 10
-11 14 3 4 -3 22 -12 41 -9 18 -17 46 -19 62 -1 16 -8 33 -15 37 -6 5 -13 25
-13 46 -1 21 -7 39 -14 42 -10 3 -10 7 0 19 11 14 10 15 -12 9 -25 -6 -25 -6
-2 5 22 12 30 29 13 29 -4 0 -6 11 -3 25 2 14 1 25 -4 24 -35 -6 -47 16 -14
26 11 3 20 11 20 16 0 6 -8 6 -20 -1 -11 -6 -20 -7 -20 -2 0 14 390 185 605
265 228 85 509 176 670 218 243 63 598 137 760 158 l70 8 -80 2 c-44 0 -136
-6 -205 -14 -69 -8 -127 -15 -129 -15 -19 0 107 98 267 211 l64 44 -42 3 c-53
4 -81 -16 -216 -154 l-101 -103 -109 -16 c-60 -9 -171 -29 -247 -44 -135 -27
-137 -27 -131 -7 22 75 146 243 214 290 16 12 30 24 30 29 0 10 -97 9 -102 -1
-1 -4 -21 -19 -43 -32 -87 -52 -288 -213 -406 -325 -76 -72 -90 -81 -162 -101
-107 -31 -397 -128 -521 -175 -140 -53 -158 -53 -136 3 37 90 111 181 319 389
l216 215 -115 -84 c-135 -100 -254 -193 -402 -314 -58 -49 -110 -88 -115 -88
-4 0 4 11 20 24 28 24 36 46 16 46 -6 0 -9 7 -5 15 3 8 1 15 -3 15 -5 0 -7 8
-5 18 2 9 0 24 -5 32 -9 13 -14 13 -41 -3 -43 -26 -37 -14 8 16 29 19 43 22
56 15 20 -11 31 -5 21 11 -3 6 -11 8 -17 5 -7 -4 -8 -2 -4 4 7 12 230 161 389
259 l92 58 -79 3 c-44 2 -82 -1 -85 -5 -7 -10 -164 -72 -170 -67 -2 1 6 16 18
32 12 17 21 33 21 36 0 11 -370 7 -383 -5 -27 -23 -172 -117 -176 -113 -6 6
85 94 96 94 6 0 16 7 23 15 11 13 8 15 -18 15 -17 0 -32 -3 -34 -8z m323 -69
c-58 -73 -103 -120 -85 -90 9 15 13 31 9 35 -4 4 -10 1 -12 -5 -6 -17 -78 -17
-92 1 -9 11 3 19 59 45 39 17 80 31 93 31 12 0 29 5 37 10 24 16 23 12 -9 -27z
m-201 -57 c0 -2 -7 -7 -16 -10 -8 -3 -12 -2 -9 4 6 10 25 14 25 6z m-2200
-532 c58 -8 119 -20 136 -25 17 -5 40 -9 51 -9 33 0 53 -11 54 -29 0 -10 2
-11 6 -3 7 18 30 15 42 -5 6 -10 11 -12 11 -5 0 14 30 17 30 3 0 -38 -32 -55
-44 -24 -5 12 -9 14 -18 5 -9 -9 -7 -16 10 -28 12 -8 22 -21 22 -27 0 -9 -3
-8 -8 1 -5 7 -19 14 -31 17 -17 3 -21 0 -17 -11 4 -11 1 -14 -12 -10 -9 2 -43
10 -74 17 -31 7 -54 17 -51 23 3 5 1 6 -5 2 -7 -4 -62 4 -124 18 -181 40 -326
56 -510 53 -92 -1 -161 1 -155 5 7 3 41 14 77 23 139 36 402 40 610 9z m6158
-29 l3 -30 -273 -3 c-150 -2 -325 -7 -388 -12 -155 -13 -183 -11 -80 6 225 37
552 72 655 70 l80 -1 3 -30z m-4758 -49 c0 -2 -8 -10 -17 -17 -16 -13 -17 -12
-4 4 13 16 21 21 21 13z m4745 -33 c-3 -8 -5 -30 -5 -49 0 -24 -5 -34 -15 -34
-8 0 -15 -2 -15 -4 0 -2 -3 -12 -7 -22 -4 -12 -3 -15 5 -10 7 4 12 1 12 -8 0
-9 -6 -15 -12 -13 -9 1 -12 -8 -10 -27 2 -16 -4 -36 -13 -46 -8 -9 -13 -24 -9
-34 3 -9 1 -16 -5 -16 -6 0 -11 -13 -11 -30 0 -18 -10 -39 -25 -54 -27 -27
-32 -41 -12 -33 7 3 13 -5 14 -21 1 -18 -1 -21 -8 -11 -6 10 -9 6 -10 -16 -3
-55 -6 -80 -14 -100 -6 -16 -5 -17 5 -5 9 12 10 6 5 -26 -4 -23 -2 -45 3 -48
5 -3 7 -17 4 -32 -3 -19 -7 -22 -13 -12 -6 9 -9 7 -9 -9 0 -13 -4 -23 -10 -23
-5 0 -10 -7 -10 -16 0 -8 4 -13 8 -10 4 2 8 -22 7 -55 0 -32 -3 -59 -8 -59 -4
0 -2 -9 5 -20 10 -16 10 -24 0 -40 -16 -27 -15 -30 9 -30 19 0 19 -1 4 -16 -9
-9 -14 -23 -11 -31 3 -8 6 -19 6 -24 0 -6 5 -7 10 -4 6 4 10 -6 10 -22 0 -19
-3 -24 -9 -14 -6 10 -10 10 -16 1 -4 -6 0 -19 9 -29 11 -12 16 -37 16 -82 0
-58 16 -128 33 -145 4 -4 7 -19 7 -32 0 -14 3 -22 7 -19 10 11 33 -63 33 -105
0 -21 5 -38 10 -38 6 0 10 -14 10 -31 0 -17 4 -28 10 -24 6 3 10 -2 10 -13 0
-27 29 -82 47 -89 12 -5 12 -7 1 -14 -10 -7 -9 -14 5 -39 10 -16 16 -39 12
-49 -6 -19 17 -51 36 -51 5 0 11 -11 15 -25 3 -14 10 -23 14 -20 13 8 19 -22
7 -35 -9 -10 -9 -14 0 -17 7 -3 20 -21 30 -41 9 -20 18 -38 19 -40 1 -2 16 4
33 13 17 8 31 13 31 10 0 -2 -40 -25 -88 -49 -297 -149 -825 -463 -1183 -704
-76 -51 -139 -92 -142 -92 -5 0 -51 -31 -358 -243 -70 -48 -133 -87 -140 -87
-11 0 -11 3 1 10 14 9 8 12 -16 9 -11 -1 -44 44 -38 52 3 5 -4 9 -15 9 -13 0
-19 5 -15 14 3 7 -2 16 -10 19 -9 4 -16 14 -16 23 0 14 -2 15 -17 3 -13 -10
-12 -7 3 13 35 45 268 263 454 423 63 55 122 107 130 115 33 33 332 262 449
344 69 48 183 121 253 163 70 42 127 78 125 79 -5 6 -209 -82 -362 -156 -232
-112 -631 -333 -778 -432 -32 -22 -75 -46 -95 -55 -20 -8 -84 -46 -142 -83
-130 -84 -247 -155 -238 -145 5 5 -2 13 -15 19 -12 7 -22 17 -22 24 0 7 -11
18 -25 25 -16 9 -24 21 -23 34 2 14 -5 23 -19 26 -15 4 -19 11 -16 25 4 12 -4
30 -19 46 -13 14 -21 26 -17 26 4 0 0 8 -9 18 -8 9 -15 22 -15 27 0 6 -8 15
-18 20 -11 6 -19 16 -20 23 -1 6 -2 26 -2 42 -1 18 -8 30 -15 30 -15 0 -46 30
-45 43 0 18 -25 66 -34 64 -13 -3 -29 50 -21 70 3 8 1 18 -6 22 -7 5 13 26 54
56 35 27 63 51 61 53 -2 1 -37 -17 -77 -42 -66 -40 -74 -43 -85 -28 -6 10 -13
26 -16 37 -2 13 -10 19 -23 17 -24 -4 -24 -5 80 80 141 115 358 270 520 373
232 147 409 265 398 265 -9 0 -65 -22 -193 -75 -125 -52 -360 -190 -711 -417
-162 -105 -194 -123 -185 -109 4 6 0 23 -8 36 -9 14 -13 25 -9 26 5 0 -1 4
-11 8 -21 8 -4 21 234 178 342 224 1028 584 1295 679 151 53 376 141 384 150
3 4 -3 4 -14 1 -11 -4 -74 -20 -140 -36 -123 -31 -441 -133 -665 -214 -295
-106 -731 -293 -1075 -461 -160 -78 -172 -82 -197 -70 -15 8 -31 20 -35 26 -4
7 -17 18 -28 25 -11 6 -19 16 -17 22 1 6 -5 11 -14 11 -8 0 -13 4 -9 9 8 14
-96 121 -118 121 -14 0 -17 5 -12 21 5 15 4 19 -4 15 -6 -4 -11 -5 -11 -2 0
17 499 356 700 476 261 155 433 248 653 354 125 60 225 111 223 113 -5 5 -127
-30 -229 -65 -48 -18 -115 -39 -149 -47 -131 -35 -509 -197 -748 -322 -266
-139 -311 -164 -451 -246 -208 -122 -208 -122 -216 -100 -4 10 -22 32 -40 48
-58 52 -51 69 57 137 266 169 659 370 1010 516 256 106 290 119 520 196 319
106 430 137 660 185 80 17 197 41 260 55 63 13 196 34 295 45 99 11 214 25
255 30 114 13 172 11 165 -6z m-7025 -37 c0 -2 -8 -10 -17 -17 -16 -13 -17
-12 -4 4 13 16 21 21 21 13z m5520 -1142 c-320 -171 -410 -220 -555 -305 -350
-204 -663 -411 -982 -651 l-183 -136 -65 27 c-36 15 -68 30 -71 33 -8 8 330
230 601 395 208 126 683 384 940 509 173 84 394 183 410 183 6 0 -37 -25 -95
-55z m-1365 10 c-11 -8 -78 -54 -150 -101 -272 -179 -532 -373 -813 -606 -137
-113 -145 -119 -179 -112 -34 6 -35 7 -17 26 22 24 374 291 489 370 235 163
348 237 567 369 113 68 141 83 103 54z m-3175 -277 c-14 -13 -81 -75 -149
-138 -297 -273 -651 -697 -903 -1081 -72 -111 -80 -119 -74 -83 56 340 76 402
204 625 90 158 155 242 283 365 224 215 437 329 624 334 l40 1 -25 -23z m6570
-512 c0 -2 -28 -23 -62 -47 -349 -236 -878 -688 -1309 -1118 -522 -521 -918
-998 -1370 -1650 -126 -182 -131 -188 -355 -400 -124 -118 -231 -218 -236
-221 -6 -4 6 -38 30 -85 40 -74 41 -78 25 -104 -14 -25 -14 -36 7 -143 13 -65
26 -117 29 -117 4 0 29 22 56 50 l49 50 24 -23 c14 -12 56 -58 95 -102 76 -86
87 -95 87 -72 0 8 7 18 16 21 8 3 12 2 9 -4 -3 -6 -2 -10 3 -10 11 0 619 348
817 468 77 46 143 86 148 89 4 2 7 2 7 -1 0 -13 -492 -330 -790 -511 -161 -97
-166 -100 -130 -91 24 7 24 7 5 -9 -11 -9 -28 -14 -37 -11 -10 2 -18 -1 -18
-8 0 -17 53 -66 71 -66 28 0 422 204 624 323 240 141 277 165 423 262 61 41
112 73 112 71 0 -2 -64 -51 -142 -108 -210 -153 -554 -378 -838 -548 -58 -34
-108 -67 -112 -74 -10 -16 69 -93 109 -107 32 -10 37 -19 45 -73 2 -11 21 -29
43 -41 21 -13 49 -36 60 -53 12 -17 47 -60 80 -96 50 -56 64 -66 91 -66 64 0
338 142 625 322 90 57 170 107 177 112 6 4 12 5 12 2 0 -12 -464 -314 -652
-425 -64 -37 -108 -69 -108 -79 0 -20 29 -52 48 -52 33 0 397 190 632 330 136
81 405 250 544 342 65 43 122 78 126 78 12 0 34 -120 24 -129 -21 -20 -291
-216 -429 -312 -180 -125 -419 -281 -573 -375 -63 -37 -123 -81 -134 -96 l-20
-29 34 -38 c18 -22 87 -102 154 -178 66 -76 152 -184 192 -238 95 -133 93
-131 122 -140 40 -12 49 -24 44 -58 -4 -27 9 -56 84 -182 54 -89 99 -154 112
-160 22 -10 42 -53 69 -152 6 -24 22 -54 34 -68 21 -25 23 -26 62 -12 63 23
279 133 389 200 315 190 657 430 1021 719 l150 119 -100 -97 c-373 -362 -865
-767 -1260 -1036 -77 -53 -141 -102 -143 -110 -1 -7 22 -51 52 -98 46 -73 57
-85 80 -83 66 5 297 125 531 278 111 72 118 74 55 15 -98 -91 -299 -253 -589
-474 -500 -383 -696 -541 -963 -775 -125 -110 -129 -112 -215 -136 -882 -244
-1062 -288 -1508 -366 -309 -55 -823 -14 -1190 92 -287 84 -565 199 -960 399
-409 208 -856 438 -869 449 -6 5 -101 57 -211 116 -221 119 -243 133 -397 252
-124 97 -137 112 -188 218 -73 154 -111 261 -151 430 -23 94 -61 251 -85 350
-24 99 -61 268 -83 375 -22 107 -54 260 -71 340 -96 445 -140 707 -140 830 0
79 20 195 86 495 93 421 201 788 288 970 150 318 530 870 870 1265 124 145
408 452 412 447 2 -2 0 -37 -6 -79 -12 -101 -33 -503 -28 -553 4 -30 5 -24 7
25 4 118 18 111 23 -13 3 -71 9 -122 16 -129 7 -7 12 -9 12 -5 0 20 53 207 83
293 31 88 106 284 113 292 3 5 308 -26 327 -34 29 -11 19 -27 -45 -74 -87 -65
-259 -258 -301 -338 -58 -111 -124 -316 -132 -410 -4 -46 -11 -80 -14 -75 -4
4 -16 52 -26 106 -22 113 -42 110 -31 -4 l6 -69 -47 6 -48 5 53 -19 c29 -10
54 -21 56 -23 2 -2 19 -31 36 -64 45 -82 83 -128 235 -283 259 -266 621 -592
725 -653 35 -21 35 -21 17 -1 -19 20 -18 21 22 33 42 12 45 16 35 42 -4 13
-11 13 -53 0 -60 -17 -85 -9 -149 50 -26 24 -68 58 -94 76 -25 18 -60 52 -77
75 -16 24 -52 58 -78 77 -60 43 -449 429 -491 488 -18 24 -32 56 -32 70 0 14
-3 61 -6 103 -5 65 -2 91 20 170 47 163 122 304 229 430 38 44 57 75 57 93 0
38 50 85 90 85 31 0 83 28 107 58 11 14 21 12 83 -12 l71 -28 -6 -43 c-5 -32
-2 -52 14 -83 24 -47 75 -125 108 -165 13 -16 23 -39 23 -52 0 -12 6 -28 14
-34 8 -7 24 -32 35 -57 30 -63 21 -103 -30 -140 -25 -19 -50 -51 -69 -89 -22
-44 -45 -72 -90 -108 -33 -26 -73 -66 -88 -89 -24 -37 -27 -51 -27 -122 0 -69
3 -86 24 -115 27 -38 91 -70 138 -71 46 0 157 47 205 86 53 45 72 43 105 -8
44 -71 103 -184 114 -220 30 -98 42 -156 54 -251 5 -41 -10 -60 -70 -93 -21
-11 -35 -27 -38 -43 -3 -14 -4 -27 -2 -29 7 -7 130 62 222 124 128 87 222 163
306 247 68 69 68 69 63 36 -8 -48 -26 -236 -26 -268 1 -16 15 12 39 75 39 102
118 259 152 303 11 13 19 31 19 40 0 9 5 23 10 31 8 13 12 12 25 -5 9 -11 -4
21 -30 70 -59 113 -287 456 -395 594 -237 305 -513 582 -773 779 -74 56 -117
72 -52 20 59 -48 166 -151 161 -155 -2 -3 -28 8 -58 23 -29 15 -105 46 -169
69 -69 25 -141 60 -175 84 -149 104 -190 134 -209 149 -14 12 -13 8 4 -10 13
-15 59 -53 103 -85 43 -32 74 -59 68 -61 -5 -2 -34 4 -62 14 -29 10 -102 29
-162 43 l-109 26 127 120 c70 66 131 121 136 123 17 6 310 -200 388 -272 l32
-30 233 230 c357 354 647 614 684 614 11 0 27 -6 36 -12 15 -12 4 -24 -94
-113 -239 -215 -749 -753 -749 -790 0 -17 102 -103 194 -162 38 -25 123 -98
188 -161 109 -106 118 -118 112 -144 -5 -25 1 -36 45 -80 39 -39 56 -49 73
-45 34 8 72 -43 65 -87 -5 -29 2 -41 72 -122 42 -49 90 -102 105 -119 16 -16
47 -55 69 -85 23 -30 80 -107 127 -170 48 -63 92 -124 97 -135 6 -11 19 -72
29 -135 19 -128 29 -137 16 -15 -5 44 -8 82 -6 84 1 1 23 -37 49 -85 25 -49
43 -78 39 -64 -4 14 -24 60 -45 102 l-38 76 117 114 c183 179 238 228 251 228
7 0 11 -6 8 -13 -3 -8 -8 -40 -11 -73 l-5 -59 15 70 c8 39 12 76 9 82 -5 14
193 189 439 389 171 138 564 442 582 450 6 3 28 -5 48 -17 l36 -21 -92 -86
c-308 -285 -781 -772 -1086 -1118 l-151 -172 21 -43 c11 -24 47 -76 79 -116
33 -39 59 -76 59 -82 0 -40 94 25 307 211 92 80 278 238 412 350 135 112 292
243 349 291 93 78 761 585 917 696 67 47 44 25 -60 -59 -400 -323 -725 -619
-1206 -1099 -321 -321 -466 -478 -502 -543 l-19 -33 29 35 c239 294 988 1017
1513 1459 600 506 1104 860 1865 1313 314 187 305 182 305 173z m-3335 -228
c-22 -18 -77 -65 -123 -104 -74 -65 -113 -88 -111 -65 1 8 258 202 268 202 3
-1 -12 -15 -34 -33z m3132 -14 c-4 -3 0 -14 9 -24 9 -10 18 -36 21 -58 3 -22
9 -38 14 -35 5 3 9 -4 9 -16 0 -12 5 -18 10 -15 6 3 10 -1 10 -10 0 -9 5 -13
10 -10 6 3 10 1 10 -4 0 -6 -6 -11 -12 -11 -7 -1 -3 -9 10 -19 12 -11 22 -24
22 -30 0 -6 5 -21 12 -34 24 -47 28 -57 28 -72 0 -8 6 -14 12 -12 8 1 15 -14
18 -38 3 -25 10 -40 19 -40 37 0 12 -30 -101 -126 -68 -57 -232 -197 -365
-311 -133 -115 -245 -208 -248 -208 -12 0 176 288 302 464 l64 89 -48 -41
c-26 -23 -93 -78 -148 -121 -55 -44 -163 -137 -240 -208 -77 -70 -170 -153
-205 -184 -36 -31 -175 -163 -310 -294 -135 -130 -253 -241 -262 -246 -15 -8
-18 -6 -18 11 0 12 -4 19 -8 16 -5 -3 -19 6 -30 19 -12 14 -19 25 -15 25 3 0
-2 9 -12 20 -11 13 -25 18 -37 14 -11 -3 -18 0 -18 7 0 14 -118 5 -134 -11 -6
-6 -13 -10 -18 -10 -4 0 22 39 57 86 36 47 65 90 65 95 0 34 557 592 735 737
38 31 92 78 120 104 27 27 55 48 60 48 6 0 31 20 55 45 24 25 48 45 52 45 5 0
43 29 86 63 90 75 201 158 327 244 83 58 109 73 92 56z m-3765 -165 l58 -39
-107 -92 c-248 -214 -595 -554 -787 -772 -49 -55 -91 -101 -95 -103 -12 -5
-213 206 -207 217 9 14 261 225 457 382 318 255 597 461 613 452 6 -4 37 -24
68 -45z m238 -156 c0 -5 -84 -89 -186 -187 -209 -201 -407 -409 -599 -630 -71
-82 -148 -169 -170 -193 l-41 -44 -27 36 -28 36 92 102 c146 163 569 579 752
741 148 128 207 168 207 139z m1579 -105 c-160 -133 -338 -283 -383 -324 -56
-52 -59 -53 -77 -37 -11 9 -19 21 -19 25 0 13 460 339 478 339 3 0 3 -2 1 -3z
m2209 -89 c-12 -21 -11 -25 14 -49 15 -15 29 -25 31 -23 2 3 10 -2 16 -10 15
-17 7 -36 -15 -36 -8 0 -14 -9 -14 -20 0 -11 7 -20 15 -20 8 0 15 7 15 15 0 8
7 15 15 15 9 0 15 -9 15 -21 0 -12 8 -23 20 -26 17 -5 20 -14 20 -64 0 -61 11
-74 36 -41 12 16 13 16 19 -1 4 -10 1 -25 -6 -34 -11 -13 -11 -17 -1 -20 6 -3
12 -14 13 -26 0 -22 0 -22 9 1 9 22 30 31 30 12 0 -5 9 -10 20 -10 12 0 20 -7
20 -17 0 -15 2 -16 10 -3 5 8 10 10 10 4 0 -6 -7 -17 -15 -24 -12 -10 -15 -10
-15 3 0 10 -6 14 -15 11 -17 -7 -21 -34 -5 -34 6 0 10 -10 11 -22 0 -13 3 -17
6 -10 6 15 33 16 33 1 0 -7 10 -9 24 -5 18 4 28 1 35 -11 5 -10 13 -18 18 -18
4 0 7 -3 5 -7 -1 -5 3 -8 8 -8 6 0 26 -16 46 -35 26 -27 33 -40 28 -59 -4 -19
-1 -24 20 -28 27 -5 36 6 14 16 -7 3 -4 4 7 3 12 -2 19 -10 19 -20 -1 -10 5
-17 17 -17 11 0 19 -6 19 -12 0 -9 4 -8 10 2 8 12 10 11 10 -6 0 -14 11 -27
33 -38 48 -24 67 -41 67 -61 0 -12 6 -16 19 -12 13 3 21 -1 24 -14 3 -11 14
-19 27 -19 13 0 24 -8 27 -20 5 -20 33 -29 33 -10 0 6 4 10 10 10 5 0 7 -7 4
-15 -6 -14 18 -47 32 -44 3 0 17 -8 30 -20 13 -12 30 -21 38 -21 7 0 31 -16
52 -35 22 -19 44 -38 50 -43 6 -6 25 -13 42 -17 18 -3 32 -11 32 -16 0 -5 8
-9 18 -9 9 -1 28 -14 42 -30 13 -17 31 -30 40 -30 10 0 30 -11 45 -24 l28 -24
-79 -93 c-43 -51 -115 -133 -159 -182 -44 -49 -93 -106 -110 -127 -132 -162
-625 -640 -881 -853 -119 -99 -155 -125 -172 -120 -12 3 -22 10 -22 15 0 5 -4
7 -9 4 -5 -3 -14 1 -21 9 -11 14 -15 14 -34 -2 -11 -10 116 122 284 293 168
170 328 339 355 374 28 35 84 100 125 144 76 82 245 278 264 307 18 27 -84
-83 -126 -136 -79 -99 -279 -304 -330 -338 -29 -20 -100 -77 -158 -128 -264
-232 -522 -435 -529 -416 -2 6 -10 18 -18 25 -11 11 -13 11 -13 -3 0 -9 -4
-13 -10 -10 -5 3 -10 15 -10 25 0 11 -9 24 -20 30 -11 6 -46 36 -77 66 -31 29
-61 54 -66 54 -12 0 -77 68 -77 81 0 5 -7 9 -15 9 -8 0 -15 7 -15 15 0 8 -15
24 -32 35 -18 11 -28 20 -23 20 6 0 4 4 -4 9 -8 5 -16 21 -18 34 -3 19 7 33
44 63 50 40 90 75 386 338 167 149 218 199 145 144 -225 -170 -712 -505 -681
-467 10 13 7 18 -18 33 -16 10 -26 22 -23 28 5 8 1 9 -12 4 -12 -5 -7 5 15 28
24 24 30 36 20 36 -9 0 -24 -9 -34 -20 -13 -14 -22 -17 -34 -10 -23 12 -118
100 -109 100 5 0 -2 11 -14 25 -12 14 -29 25 -39 25 -9 0 -22 13 -29 30 -7 17
-16 30 -21 30 -5 0 -9 5 -9 11 0 5 -30 38 -66 73 -45 43 -62 65 -53 69 10 4 9
6 -3 6 -11 1 -18 9 -18 21 0 12 -7 20 -16 20 -12 0 -15 6 -11 21 5 17 3 18
-11 7 -9 -7 152 156 359 362 396 396 821 851 943 1013 31 41 46 50 24 15z
m-5583 -118 c3 -5 -1 -10 -9 -10 -9 0 -16 5 -16 10 0 6 4 10 9 10 6 0 13 -4
16 -10z m705 -681 c0 -6 -4 -7 -10 -4 -5 3 -10 11 -10 16 0 6 5 7 10 4 6 -3
10 -11 10 -16z m6251 -388 c-9 -16 -4 -21 34 -36 25 -9 45 -21 45 -26 0 -6 10
-9 23 -7 14 2 21 -2 19 -10 -2 -10 2 -10 18 -2 17 9 20 8 20 -10 0 -12 4 -19
9 -15 5 3 13 0 16 -6 4 -5 13 -8 21 -5 8 3 14 0 14 -5 0 -6 9 -9 19 -6 12 3
22 -1 25 -9 3 -8 11 -14 18 -14 8 0 20 -9 28 -20 8 -12 26 -20 42 -20 15 0 28
-4 28 -10 0 -5 9 -10 20 -10 11 0 20 -4 20 -10 0 -5 9 -10 20 -10 11 0 20 -4
20 -10 0 -5 14 -10 30 -10 17 0 30 -4 30 -10 0 -5 11 -10 24 -10 14 0 28 -4
31 -10 3 -5 15 -10 26 -10 10 0 19 -4 19 -10 0 -5 18 -10 40 -10 22 0 40 -4
40 -10 0 -5 6 -10 13 -10 7 0 21 -9 30 -21 15 -17 27 -20 68 -17 45 3 65 -5
37 -14 -8 -3 -3 -10 12 -18 15 -8 25 -9 27 -3 4 12 53 -7 53 -19 0 -13 28 -9
33 5 3 6 6 2 6 -10 1 -22 31 -34 31 -13 0 6 8 2 18 -7 12 -12 16 -22 10 -30
-5 -7 -5 -14 1 -17 5 -4 17 4 27 16 11 15 14 17 11 6 -4 -10 -2 -18 3 -18 6 0
10 4 10 8 0 4 8 8 19 9 18 2 18 0 1 -45 -76 -206 -358 -766 -482 -958 -24 -38
-81 -128 -126 -200 -98 -157 -209 -316 -228 -327 -8 -5 -12 -12 -9 -16 2 -5
-9 -20 -25 -35 -17 -14 -30 -21 -30 -16 0 7 -6 7 -20 0 -16 -8 -20 -8 -20 3 0
9 -10 13 -27 12 -16 -1 -36 5 -46 14 -16 13 -19 13 -27 1 -5 -8 -11 -12 -14
-10 -2 3 36 68 85 145 105 163 122 195 77 141 -193 -232 -206 -245 -240 -242
-18 2 -41 -1 -50 -5 -11 -6 -22 -4 -32 6 -8 8 -22 15 -31 15 -9 0 -14 4 -10 9
3 6 -3 10 -12 9 -10 0 -33 5 -50 10 -22 7 -33 7 -33 1 0 -6 -7 -3 -16 5 -8 9
-18 16 -22 17 -43 5 -67 12 -79 25 -18 17 -25 18 -41 2 -9 -9 -12 -8 -12 7 0
10 -3 16 -6 12 -3 -3 -23 3 -45 14 -21 12 -53 23 -71 26 -18 3 -36 10 -40 16
-4 7 -8 8 -8 3 0 -4 -11 -1 -24 7 -13 9 -34 14 -46 12 -20 -4 -19 -1 9 37 17
23 29 43 27 45 -2 2 -22 -15 -45 -38 -23 -23 -45 -38 -49 -34 -4 4 -1 10 6 12
28 10 9 23 -29 20 -33 -3 -46 2 -71 25 -17 15 -34 29 -39 29 -5 1 -13 3 -19 4
-5 1 -15 3 -21 4 -5 0 -7 6 -4 11 4 6 -13 10 -42 11 -26 0 -43 3 -36 5 7 3 2
14 -13 30 -27 26 -44 31 -45 12 0 -10 -2 -10 -6 0 -2 6 -12 12 -20 12 -9 0
-23 8 -32 18 -9 11 -28 22 -42 25 -14 4 -41 20 -60 36 -25 22 -37 27 -46 19
-37 -30 -1 16 105 135 322 361 825 990 1074 1345 49 69 70 92 49 53z m-6853
-247 c6 -40 -88 -88 -101 -51 -5 15 18 63 35 71 29 11 63 1 66 -20z m543 -188
c9 -31 -12 -46 -36 -26 -18 15 -20 46 -2 53 21 9 31 2 38 -27z m5778 -63 c-14
-16 -86 -95 -160 -178 -273 -305 -715 -734 -1063 -1033 -191 -165 -426 -356
-430 -350 -4 5 -26 95 -26 107 0 6 71 63 158 128 518 386 1022 824 1384 1203
78 83 147 150 152 150 5 0 -1 -12 -15 -27z m-3758 -710 c-7 -13 -4 -20 12 -28
12 -6 22 -20 22 -30 0 -26 14 -47 26 -39 5 3 8 0 7 -8 -2 -7 3 -12 10 -10 6 1
12 0 12 -4 0 -17 -170 -250 -280 -383 -183 -222 -196 -233 -194 -148 1 34 19
72 89 192 124 212 292 475 302 475 2 0 0 -8 -6 -17z m2779 -143 c0 -5 -2 -10
-4 -10 -3 0 -8 5 -11 10 -3 6 -1 10 4 10 6 0 11 -4 11 -10z m-2650 -85 c-15
-18 -7 -19 21 -5 15 9 20 7 25 -7 3 -10 10 -26 15 -35 15 -28 12 -43 -6 -28
-12 10 -15 9 -15 -5 0 -13 6 -16 25 -11 20 5 25 3 25 -14 0 -11 5 -20 10 -20
13 0 70 -50 70 -62 0 -4 -6 -8 -12 -8 -7 0 -20 -5 -28 -10 -12 -8 -12 -12 -2
-18 8 -6 -18 -23 -80 -52 -211 -97 -221 -100 -304 -88 -18 2 -12 30 8 36 22 5
24 22 3 22 -8 0 -15 -4 -15 -9 0 -5 -7 -12 -16 -15 -15 -6 -15 -4 -3 13 8 10
30 41 48 67 60 84 130 167 184 216 53 48 69 60 47 33z m-570 -98 c0 -5 -4 -5
-10 -2 -5 3 -10 14 -10 23 0 15 2 15 10 2 5 -8 10 -19 10 -23z m290 -297 c0
-14 -28 -19 -33 -5 -3 7 -3 15 0 18 7 7 33 -3 33 -13z m710 -244 c0 -2 -8 -10
-17 -17 -16 -13 -17 -12 -4 4 13 16 21 21 21 13z m-66 -64 c2 -4 -4 -8 -14 -8
-10 0 -16 4 -14 8 3 4 9 8 14 8 5 0 11 -4 14 -8z m-5783 -53 c-5 -13 -10 -19
-10 -12 -1 15 10 45 15 40 3 -2 0 -15 -5 -28z m5419 -74 c7 -8 8 -15 2 -15 -5
0 -15 7 -22 15 -7 8 -8 15 -2 15 5 0 15 -7 22 -15z m-5354 -17 c-14 -23 -32
-23 -39 0 -3 15 1 19 23 18 23 -1 25 -4 16 -18z m5854 -453 c-7 -8 -17 -15
-22 -15 -6 0 -5 7 2 15 7 8 17 15 22 15 6 0 5 -7 -2 -15z m2210 -2710 c0 -191
-61 -364 -186 -526 -170 -221 -571 -372 -1011 -381 -92 -2 -119 0 -110 8 7 7
89 66 182 131 177 125 579 425 700 523 79 64 102 79 91 61 -4 -6 -11 -52 -16
-102 -11 -111 -27 -144 -130 -265 -104 -120 -149 -154 -240 -181 l-45 -13 40
6 c76 11 118 38 207 135 161 174 187 224 188 352 0 64 21 105 73 144 23 17 87
72 142 121 64 57 103 85 107 78 4 -6 8 -47 8 -91z m-2216 -387 c-75 -73 -144
-134 -153 -136 -9 -1 -25 4 -37 10 -12 7 -53 30 -92 50 -39 21 -73 42 -76 47
-3 5 18 15 47 21 39 9 346 105 432 135 6 2 11 4 13 4 2 1 -58 -59 -134 -131z
m-4698 -693 c-9 -9 -16 -13 -16 -8 0 12 22 34 28 28 2 -2 -3 -11 -12 -20z"/>
<path d="M2624 6978 c-44 -48 -74 -89 -74 -103 0 -6 33 -24 73 -40 39 -15 90
-35 112 -45 22 -10 52 -21 68 -24 26 -6 27 -5 21 21 -4 16 -13 35 -20 44 -8 8
-14 19 -14 23 0 5 -12 23 -27 41 -16 18 -41 52 -57 74 -17 23 -35 41 -41 41
-6 0 -25 -15 -41 -32z"/>
<path d="M4691 6344 c0 -11 3 -14 6 -6 3 7 2 16 -1 19 -3 4 -6 -2 -5 -13z"/>
<path d="M4147 5973 c-2 -5 -16 -44 -30 -88 -14 -44 -29 -89 -32 -100 -6 -16
-5 -17 4 -5 6 8 23 53 37 100 15 47 29 88 31 93 2 4 2 7 -1 7 -3 0 -7 -3 -9
-7z"/>
<path d="M4066 5743 c-6 -14 -5 -15 5 -6 7 7 10 15 7 18 -3 3 -9 -2 -12 -12z"/>
<path d="M5806 4182 c5 -4 42 -32 81 -62 40 -29 71 -55 70 -56 -2 -2 -45 10
-96 27 -52 16 -95 28 -97 26 -3 -2 51 -24 118 -48 l123 -44 100 -95 c278 -264
544 -583 743 -890 85 -132 110 -162 62 -75 -105 190 -339 502 -555 739 -168
185 -507 486 -548 486 -7 0 -7 -3 -1 -8z"/>
<path d="M5877 3959 c16 -20 7 -29 -29 -29 -16 0 -39 -6 -51 -14 -30 -20 -269
-84 -339 -92 -32 -4 -58 -10 -58 -13 0 -7 133 -25 268 -37 l73 -6 -73 -43
c-95 -56 -210 -150 -328 -267 -109 -108 -160 -172 -229 -286 l-49 -81 -12 29
c-7 17 -17 33 -21 36 -31 19 121 -274 244 -471 235 -377 347 -536 445 -635 91
-90 96 -98 108 -155 l12 -60 1 53 c1 28 2 52 4 52 1 0 26 -9 55 -20 74 -28 95
-26 59 5 l-28 25 25 0 c26 0 33 15 18 36 -4 6 -29 11 -57 13 -117 5 -184 49
-291 192 -100 135 -256 374 -315 482 -26 48 -61 105 -78 126 -17 22 -41 61
-53 88 -12 26 -30 60 -41 75 -51 69 -19 174 96 309 63 74 207 211 279 266 26
20 38 38 43 65 10 56 54 89 114 87 38 -2 60 5 113 35 56 31 70 35 92 26 33
-12 43 -40 40 -110 -3 -58 19 -146 56 -221 11 -24 20 -55 20 -70 0 -15 4 -30
9 -33 5 -3 14 -29 21 -57 17 -68 -4 -115 -67 -155 -24 -15 -50 -35 -56 -45 -7
-9 -32 -30 -57 -47 -63 -42 -147 -133 -170 -184 -25 -55 -25 -124 -1 -164 56
-92 151 -115 281 -70 41 15 82 29 90 32 22 7 116 -116 160 -211 48 -101 62
-163 63 -271 1 -105 0 -106 -121 -128 -80 -15 -125 -36 -109 -52 9 -10 176 14
272 38 121 30 283 121 422 236 34 29 65 52 69 52 4 0 4 -28 0 -62 -4 -35 -9
-88 -12 -118 -2 -30 -6 -73 -9 -96 l-6 -40 -88 -17 c-156 -30 -283 -47 -408
-53 -68 -4 -123 -10 -123 -14 0 -7 63 -29 165 -57 46 -12 55 -18 40 -23 -24
-9 33 -19 301 -55 111 -15 225 -25 270 -23 70 3 80 5 90 26 l11 23 7 -23 c3
-13 6 -43 7 -68 0 -25 5 -54 10 -65 7 -14 8 -4 4 35 -2 30 -9 132 -15 225 -5
94 -12 199 -16 235 l-5 65 37 -68 c20 -37 38 -66 40 -64 2 2 -16 49 -41 105
-36 81 -49 127 -65 229 -11 70 -26 153 -34 183 -9 30 -14 56 -12 58 2 1 30
-39 61 -90 66 -106 92 -139 76 -97 -33 89 -174 338 -284 504 -203 304 -415
551 -740 862 -117 111 -211 191 -180 152z m64 -1142 c18 -13 14 -36 -10 -55
-45 -36 -101 -37 -101 -2 0 18 36 50 70 63 22 8 23 8 41 -6z m567 -329 c-3
-45 -22 -57 -41 -27 -8 13 -6 24 6 43 26 38 39 32 35 -16z"/>
<path d="M5703 3913 c15 -2 37 -2 50 0 12 2 0 4 -28 4 -27 0 -38 -2 -22 -4z"/>
<path d="M5570 3900 c-20 -6 -21 -8 -5 -8 11 0 31 4 45 8 20 6 21 8 5 8 -11 0
-31 -4 -45 -8z"/>
<path d="M3324 3604 c-18 -14 -18 -15 4 -4 12 6 22 13 22 15 0 8 -5 6 -26 -11z"/>
<path d="M5503 3455 c-29 -30 -53 -62 -53 -71 0 -9 14 -21 30 -27 17 -6 30
-14 30 -18 0 -4 21 -20 48 -35 26 -15 65 -44 86 -65 32 -30 43 -36 58 -28 26
14 22 39 -11 79 -15 19 -49 77 -75 128 -25 50 -49 92 -53 92 -4 0 -31 -25 -60
-55z"/>
<path d="M2025 3111 c-61 -26 -58 -92 10 -226 109 -217 313 -425 417 -425 49
0 68 30 68 109 0 84 -18 131 -87 221 -233 308 -247 321 -337 327 -28 1 -60 -1
-71 -6z m160 -48 c33 -19 88 -81 191 -218 119 -158 138 -199 131 -270 -7 -68
-24 -95 -60 -95 -54 0 -102 31 -193 125 -142 147 -254 329 -254 411 0 43 11
59 45 66 30 5 117 -6 140 -19z"/>
<path d="M8681 7564 c0 -11 3 -14 6 -6 3 7 2 16 -1 19 -3 4 -6 -2 -5 -13z"/>
<path d="M9040 7159 c0 -5 5 -7 10 -4 6 3 10 8 10 11 0 2 -4 4 -10 4 -5 0 -10
-5 -10 -11z"/>
<path d="M8020 772 c0 -5 10 -17 21 -28 22 -19 22 -19 10 3 -12 24 -31 39 -31
25z"/>
<path d="M7881 654 c0 -11 3 -14 6 -6 3 7 2 16 -1 19 -3 4 -6 -2 -5 -13z"/>
<path d="M7846 542 c-22 -27 -24 -32 -7 -17 20 17 47 55 39 55 -2 0 -16 -17
-32 -38z"/>
<path d="M5299 11171 c-70 -73 -134 -151 -125 -151 3 0 45 35 94 78 49 42 106
91 128 109 l39 32 -35 0 c-31 1 -44 -7 -101 -68z"/>
<path d="M1400 11226 c0 -2 8 -10 18 -17 15 -13 16 -12 3 4 -13 16 -21 21 -21
13z"/>
<path d="M1460 11155 c19 -19 36 -35 39 -35 3 0 -10 16 -29 35 -19 19 -36 35
-39 35 -3 0 10 -16 29 -35z"/>
<path d="M1510 11096 c0 -2 8 -10 18 -17 15 -13 16 -12 3 4 -13 16 -21 21 -21
13z"/>
<path d="M1599 10993 c30 -35 56 -63 58 -63 7 0 -74 95 -94 111 -10 8 7 -14
36 -48z"/>
<path d="M1660 10917 c0 -2 15 -16 33 -33 l32 -29 -29 33 c-28 30 -36 37 -36
29z"/>
<path d="M1720 10846 c0 -2 8 -10 18 -17 15 -13 16 -12 3 4 -13 16 -21 21 -21
13z"/>
<path d="M1760 10797 c0 -2 15 -16 33 -33 l32 -29 -29 33 c-28 30 -36 37 -36
29z"/>
<path d="M1835 10710 c10 -11 20 -20 23 -20 3 0 -3 9 -13 20 -10 11 -20 20
-23 20 -3 0 3 -9 13 -20z"/>
<path d="M430 9389 c-92 -9 -236 -40 -347 -74 l-83 -26 0 -126 0 -126 32 27
c150 121 296 212 455 282 124 54 115 62 -57 43z"/>
<path d="M815 8950 c-3 -5 -1 -10 4 -10 6 0 11 5 11 10 0 6 -2 10 -4 10 -3 0
-8 -4 -11 -10z"/>
<path d="M421 8304 c0 -11 3 -14 6 -6 3 7 2 16 -1 19 -3 4 -6 -2 -5 -13z"/>
<path d="M9170 50 c0 -5 5 -10 10 -10 6 0 10 5 10 10 0 6 -4 10 -10 10 -5 0
-10 -4 -10 -10z"/>
<path d="M11224 25 c-19 -14 -18 -14 4 -15 13 0 22 6 22 15 0 19 -1 19 -26 0z"/>
</g>
</svg>
